<?xml version="1.0" encoding="UTF-8"?>
<svg version="1.1" xmlns="http://www.w3.org/2000/svg" width="1024" height="1024">
<path d="M0 0 C1.83333293 -0.00676154 3.66666014 -0.01525405 5.49997789 -0.02532321 C10.52639592 -0.04781405 15.55253797 -0.04539375 20.57899058 -0.03875387 C26.00454516 -0.03587741 31.43002293 -0.05593649 36.85554504 -0.07290649 C47.48104477 -0.10225676 58.10644952 -0.10955621 68.73198559 -0.10833099 C77.37058432 -0.10749839 86.00915304 -0.11336107 94.64774513 -0.12395668 C121.15016309 -0.15583225 147.65249562 -0.16617405 174.15493033 -0.1575021 C194.91394753 -0.1509218 215.67275145 -0.17385322 236.43171692 -0.21968079 C259.7702121 -0.27111883 283.10856977 -0.29899472 306.44712526 -0.29317886 C318.79839754 -0.29060386 331.14945058 -0.29856253 343.50067711 -0.3342495 C354.0172742 -0.36439646 364.53353794 -0.37010775 375.0501528 -0.34444048 C380.41305652 -0.3320337 385.77533399 -0.330766 391.1381855 -0.36014938 C396.05428919 -0.38679255 400.96926056 -0.38071725 405.88532618 -0.34931944 C407.65716801 -0.34361505 409.42909681 -0.3495576 411.20084359 -0.36877545 C427.34168756 -0.53192868 437.93626854 3.7601595 449.68830872 15.13749695 C450.49010559 15.9264032 451.29190247 16.71530945 452.11799622 17.52812195 C453.35817105 18.62268921 454.60752411 19.70699115 455.86799622 20.77812195 C460.4694848 24.77613662 464.89497752 28.96161568 469.34309387 33.1282196 C474.252437 37.72609016 479.19687877 42.28230774 484.16096497 46.8210907 C488.94937115 51.20020407 493.71096696 55.60845518 498.47688293 60.01200867 C501.18977208 62.51826299 503.90394481 65.0231264 506.61799622 67.52812195 C507.70133579 68.52811519 508.78466912 69.52811519 509.86799622 70.52812195 C510.40424622 71.02312195 510.94049622 71.51812195 511.49299622 72.02812195 C568.36799622 124.52812195 568.36799622 124.52812195 569.99324036 126.02836609 C571.07573492 127.02757933 572.15825442 128.02676556 573.24079895 129.02592468 C575.96217129 131.5377403 578.68309817 134.05003527 581.40315247 136.5632782 C586.63274747 141.39442787 591.86723999 146.21997145 597.11799622 151.02812195 C602.91902886 156.34016402 608.69968738 161.67406529 614.47688293 167.01200867 C617.18977208 169.51826299 619.90394481 172.0231264 622.61799622 174.52812195 C623.70133579 175.52811519 624.78466912 176.52811519 625.86799622 177.52812195 C626.67237122 178.27062195 626.67237122 178.27062195 627.49299622 179.02812195 C658.36799622 207.52812195 658.36799622 207.52812195 659.99421692 209.02934265 C661.07335636 210.02540896 662.15261991 211.02134081 663.23200989 212.01713562 C666.00556314 214.57621081 668.77666494 217.13786385 671.54377747 219.7039032 C672.67261025 220.74955543 673.80151536 221.79512958 674.93049622 222.84062195 C675.74006775 223.59158142 675.74006775 223.59158142 676.56599426 224.35771179 C680.23495281 227.7488818 683.97770774 231.03452201 687.82502747 234.22343445 C689.11799622 235.52812195 689.11799622 235.52812195 689.11799622 237.52812195 C689.77799622 237.52812195 690.43799622 237.52812195 691.11799622 237.52812195 C701.84781106 249.98768024 705.43585424 263.65891784 705.37247181 279.69036579 C705.37728153 281.49866793 705.37728153 281.49866793 705.38218841 283.34350142 C705.38904797 286.68272578 705.38699282 290.02172665 705.38113269 293.36093842 C705.37695436 296.9964604 705.38436888 300.6319621 705.39028519 304.26747912 C705.39904364 310.63700019 705.40036057 317.00648911 705.39678192 323.37601471 C705.39147431 332.84787796 705.39757082 342.31971009 705.40586485 351.79156996 C705.42110886 369.69260844 705.42280951 387.59363278 705.42034183 405.49467639 C705.41850945 419.31777924 705.42026761 433.14087745 705.42456627 446.96397972 C705.42516867 448.94965891 705.42576987 450.9353381 705.42636987 452.92101729 C705.42727712 455.91321868 705.42818579 458.90542008 705.42910222 461.89762147 C705.43753242 489.71943866 705.44186699 517.54125411 705.4376955 545.3630724 C705.43753913 546.41200641 705.43738275 547.46094043 705.43722164 548.54166033 C705.43641585 553.85811734 705.43557008 559.17457433 705.43470833 564.49103133 C705.43453725 565.54690306 705.43436616 566.6027748 705.43418989 567.69064265 C705.43384323 569.82587198 705.4334947 571.96110132 705.4331443 574.09633065 C705.4277869 607.32173317 705.43571779 640.54710915 705.45417786 673.77250671 C705.47489214 711.09890622 705.48562166 748.42528928 705.48160237 785.75169486 C705.48120702 789.7314022 705.48084548 793.71110954 705.48050499 797.69081688 C705.48041426 798.67072614 705.48032353 799.6506354 705.48023005 800.66023888 C705.4790639 815.45528064 705.48571371 830.25030579 705.49631691 845.0453434 C705.50836307 861.8709996 705.5099346 878.69661923 705.49752674 895.52227596 C705.49089407 904.93797676 705.49253861 914.35359013 705.50611526 923.76928395 C705.51435513 930.06052575 705.5116682 936.35170201 705.50013999 942.64293847 C705.493879 946.22625484 705.49229445 949.80940053 705.50400332 953.39270709 C705.51651722 957.25800856 705.5056993 961.12305043 705.49272633 964.98835468 C705.50003567 966.09334316 705.50734502 967.19833163 705.51487586 968.3368046 C705.39773141 985.16950098 699.57880634 998.98214239 687.84846497 1010.8992157 C678.1842869 1020.20392505 668.78584916 1025.30409919 655.21031475 1025.16291428 C654.04444671 1025.17078067 652.87857868 1025.17864707 651.67738131 1025.18675184 C648.45381892 1025.20346333 645.23119725 1025.19794838 642.00765589 1025.18286244 C638.49597905 1025.17194981 634.98442899 1025.19006745 631.472781 1025.20441079 C625.3222477 1025.22552309 619.17192481 1025.22807075 613.02136612 1025.21835709 C603.87511402 1025.20395076 594.72905989 1025.21809363 585.58282556 1025.23773126 C568.29676758 1025.27377986 551.01080457 1025.27608288 533.72471853 1025.26810512 C520.3759908 1025.26214699 507.02729319 1025.26536688 493.67856789 1025.27507782 C491.76059868 1025.27643709 489.84262948 1025.27779427 487.92466027 1025.27914937 C485.0344426 1025.28120182 482.14422495 1025.28326036 479.2540073 1025.28534096 C452.38278963 1025.30447559 425.51158346 1025.31353632 398.64036083 1025.30146408 C397.12092962 1025.30078376 397.12092962 1025.30078376 395.57080284 1025.30008969 C387.34492022 1025.29634971 379.11903773 1025.29234972 370.89315526 1025.28832822 C338.80878101 1025.27286911 306.72456244 1025.28915331 274.64021301 1025.33085632 C238.59047116 1025.37764701 202.54082418 1025.40121984 166.49105054 1025.39009309 C162.64699099 1025.38898168 158.80293143 1025.38794575 154.95887184 1025.38695526 C153.53912225 1025.38656445 153.53912225 1025.38656445 152.09069085 1025.38616574 C137.80416877 1025.38269712 123.517738 1025.39732003 109.23123741 1025.42105865 C92.98272353 1025.4480185 76.73441799 1025.45042839 60.48590537 1025.42019758 C51.39464623 1025.40400411 42.30387822 1025.40707511 33.21265465 1025.43802078 C27.13642025 1025.45675943 21.06055713 1025.44995122 14.98435655 1025.42256548 C11.52446682 1025.40768132 8.06553729 1025.40363677 4.60569968 1025.43069813 C-21.83627923 1025.59541169 -21.83627923 1025.59541169 -31.88200378 1017.52812195 C-32.82466073 1016.77716303 -33.76731768 1016.0262041 -34.73853999 1015.25248885 C-46.74193633 1005.2465745 -54.15848184 992.91078182 -56.88200378 977.52812195 C-57.28815189 972.20458469 -57.2879324 966.90352633 -57.26232052 961.56929302 C-57.26575896 959.97379513 -57.27050907 958.37829962 -57.27644148 956.78280905 C-57.28891635 952.40863617 -57.28281684 948.03465906 -57.27360781 943.66048542 C-57.26688737 938.89778226 -57.27756947 934.13511236 -57.28600365 929.37241632 C-57.29837095 921.02839312 -57.2995827 912.68442615 -57.29345322 904.34039688 C-57.2843627 891.93237469 -57.29239377 879.52440451 -57.30374446 867.11638631 C-57.32341696 844.95482093 -57.32575765 822.79327893 -57.32054926 800.6317069 C-57.3159931 781.23593691 -57.31658998 761.84017619 -57.3223896 742.44440651 C-57.32314647 739.84326587 -57.32390245 737.24212524 -57.32465755 734.6409846 C-57.32580273 730.72135492 -57.32695261 726.80172524 -57.32811679 722.88209557 C-57.33882287 686.43769574 -57.34357747 649.99330023 -57.33564663 613.54889965 C-57.33549832 612.86211647 -57.33535002 612.17533329 -57.33519722 611.46773849 C-57.33353826 603.80960914 -57.33178868 596.1514798 -57.33000421 588.49335047 C-57.32984318 587.80195181 -57.32968216 587.11055316 -57.32951625 586.39820303 C-57.32820866 580.78774102 -57.32820866 580.78774102 -57.32755506 578.01000509 C-57.31716394 533.78645544 -57.32493017 489.56294558 -57.34855652 445.33940125 C-57.35450007 434.19599254 -57.36039169 423.05258382 -57.36596584 411.90917492 C-57.36630961 411.22300454 -57.36665338 410.53683417 -57.36700757 409.82987075 C-57.37753726 388.67751864 -57.38312902 367.52516986 -57.38352299 346.37281513 C-57.38353577 345.70860529 -57.38354855 345.04439546 -57.38356172 344.36005805 C-57.38380027 329.12405643 -57.38258408 313.88805511 -57.38036877 298.65205365 C-57.3796527 293.43913067 -57.37897832 288.22620768 -57.37832832 283.01328468 C-57.37815851 281.72972409 -57.37798871 280.44616349 -57.37781375 279.12370712 C-57.37551012 259.74229525 -57.3834908 240.36090494 -57.3966198 220.97949791 C-57.41152329 198.9391742 -57.41238458 176.89890103 -57.39454889 154.85857841 C-57.38497848 142.52405718 -57.38643593 130.1896538 -57.40378357 117.85514042 C-57.41426414 109.61456979 -57.41018517 101.37408904 -57.39430354 93.13352727 C-57.38566288 88.43934105 -57.38326885 83.74538594 -57.39857285 79.0512115 C-57.41238471 74.77431243 -57.40753806 70.49784162 -57.38828767 66.22096728 C-57.38457543 64.68964782 -57.38744364 63.15829323 -57.39800075 61.62700566 C-57.51632794 43.18153035 -53.15071082 28.57984073 -40.37028503 14.91874695 C-36.22882908 10.93982851 -31.80107892 7.49251197 -26.88200378 4.52812195 C-26.34410286 4.18784365 -25.80620194 3.84756536 -25.25200099 3.4969756 C-17.3614902 -0.76873026 -8.70322767 -0.03711235 0 0 Z M18.11799622 73.52812195 C18.11799622 363.26812195 18.11799622 653.00812195 18.11799622 951.52812195 C220.07799622 951.52812195 422.03799622 951.52812195 630.11799622 951.52812195 C630.11799622 748.57812195 630.11799622 545.62812195 630.11799622 336.52812195 C559.82799622 336.19812195 489.53799622 335.86812195 417.11799622 335.52812195 C394.6760155 331.03972581 377.19457877 322.8549039 363.06721497 304.45780945 C357.00113951 295.34046157 352.21658785 285.31592355 350.11799622 274.52812195 C349.94651093 273.65557707 349.77502565 272.78303219 349.59834385 271.88404655 C349.0484233 268.04205427 348.96488299 264.2751292 348.95977783 260.40364075 C348.95484818 259.60414505 348.94991852 258.80464935 348.94483948 257.98092651 C348.92950573 255.30281279 348.92111399 252.62472266 348.91267395 249.94657898 C348.90295488 247.99344615 348.89280921 246.0403154 348.88227177 244.08718681 C348.85524819 238.86023119 348.83405788 233.63326719 348.81407928 228.40628052 C348.79444241 223.50018042 348.76954028 218.59411254 348.74507141 213.68803406 C348.67659201 199.34308762 348.61655957 184.99810187 348.55549622 170.65312195 C348.41112122 138.60187195 348.26674622 106.55062195 348.11799622 73.52812195 C239.21799622 73.52812195 130.31799622 73.52812195 18.11799622 73.52812195 Z M423.11799622 117.52812195 C423.09466047 135.87769503 423.07701371 154.22726428 423.06618404 172.57684898 C423.06102253 181.09641897 423.05398256 189.61597975 423.04255676 198.13554382 C423.03260553 205.5591287 423.02614174 212.98270692 423.02390772 220.40629828 C423.02260136 224.33888615 423.01952021 228.27145494 423.01226616 232.20403671 C423.00549904 235.90246596 423.00338068 239.6008682 423.00488853 243.29930305 C423.00448052 245.30995146 422.99908891 247.3205969 422.99357605 249.33123779 C422.99495071 250.52038284 422.99632538 251.70952789 422.9977417 252.93470764 C422.99681991 253.97264654 422.99589811 255.01058544 422.99494839 256.07997704 C422.95399973 258.53492152 422.95399973 258.53492152 424.11799622 260.52812195 C474.27799622 260.52812195 524.43799622 260.52812195 576.11799622 260.52812195 C574.46799622 258.87812195 572.81799622 257.22812195 571.11799622 255.52812195 C570.10014741 254.50038816 569.08308002 253.47187913 568.06721497 252.44218445 C562.81221671 247.1360271 557.57183181 241.90522917 551.87580872 237.06718445 C549.42661697 234.92278101 547.17918066 232.59950974 544.89924622 230.27812195 C543.03409947 228.44569708 541.09871876 226.7345906 539.11799622 225.02812195 C536.51152013 222.78254255 534.02865101 220.48260683 531.61799622 218.02812195 C529.22746455 215.59422463 526.76753359 213.31456636 524.18049622 211.09062195 C520.65164859 208.05132544 517.38794595 204.81795347 514.12190247 201.5007782 C511.5355347 198.95474365 508.80264342 196.60790638 506.05158997 194.2429657 C503.55368066 192.02764815 501.23774633 189.65914024 498.89924622 187.27812195 C497.03409947 185.44569708 495.09871876 183.7345906 493.11799622 182.02812195 C489.88843254 179.24572863 486.88476969 176.31792766 483.89924622 173.27812195 C482.03409947 171.44569708 480.09871876 169.7345906 478.11799622 168.02812195 C475.51152013 165.78254255 473.02865101 163.48260683 470.61799622 161.02812195 C468.22746455 158.59422463 465.76753359 156.31456636 463.18049622 154.09062195 C459.65164859 151.05132544 456.38794595 147.81795347 453.12190247 144.5007782 C450.5355347 141.95474365 447.80264342 139.60790638 445.05158997 137.2429657 C443.16305024 135.56807896 441.38643974 133.82864608 439.61799622 132.02812195 C434.45815718 126.78581974 428.86298891 122.11171684 423.11799622 117.52812195 Z " fill="#FFFFFF" transform="translate(187.8820037841797,-0.5281219482421875)"/>
<path d="M0 0 C124.41 0 248.82 0 377 0 C377 25.08 377 50.16 377 76 C252.59 76 128.18 76 0 76 C0 50.92 0 25.84 0 0 Z " fill="#FFFFFF" transform="translate(382,742)"/>
<path d="M0 0 C124.41 0 248.82 0 377 0 C377 25.08 377 50.16 377 76 C252.59 76 128.18 76 0 76 C0 50.92 0 25.84 0 0 Z " fill="#FFFFFF" transform="translate(382,602)"/>
<path d="M0 0 C124.41 0 248.82 0 377 0 C377 25.08 377 50.16 377 76 C252.59 76 128.18 76 0 76 C0 50.92 0 25.84 0 0 Z " fill="#FFFFFF" transform="translate(382,462)"/>
<path d="M0 0 C10.44544467 7.19008929 18.06045467 16.04860505 21.3828125 28.484375 C23.95991608 42.53454546 22.07303486 55.96149972 13.94921875 67.765625 C6.7904799 77.17170182 -3.02926477 84.39410344 -14.9296875 86.234375 C-29.38288685 87.39950815 -40.85547684 85.72304189 -52.9296875 77.234375 C-55.6796875 74.796875 -55.6796875 74.796875 -57.9296875 72.234375 C-58.42082031 71.71101562 -58.91195313 71.18765625 -59.41796875 70.6484375 C-67.82588402 61.42685301 -70.7933297 50.59748185 -70.9296875 38.234375 C-69.73124583 23.01606809 -63.05616986 12.2243118 -51.7265625 2.28515625 C-37.12842294 -8.41878687 -15.40504729 -9.2841085 0 0 Z " fill="#FFFFFF" transform="translate(329.9296875,739.765625)"/>
<path d="M0 0 C10.44544467 7.19008929 18.06045467 16.04860505 21.3828125 28.484375 C23.55483816 40.32609179 22.96285523 53.55875593 16.3828125 63.921875 C15.30711749 65.38080287 14.20170821 66.81820622 13.0703125 68.234375 C12.17119141 69.39453125 12.17119141 69.39453125 11.25390625 70.578125 C4.48114402 78.78753376 -4.29140273 84.58927942 -14.9296875 86.234375 C-29.38288685 87.39950815 -40.85547684 85.72304189 -52.9296875 77.234375 C-55.6796875 74.796875 -55.6796875 74.796875 -57.9296875 72.234375 C-58.42082031 71.71101562 -58.91195313 71.18765625 -59.41796875 70.6484375 C-67.82588402 61.42685301 -70.7933297 50.59748185 -70.9296875 38.234375 C-69.73124583 23.01606809 -63.05616986 12.2243118 -51.7265625 2.28515625 C-37.12842294 -8.41878687 -15.40504729 -9.2841085 0 0 Z " fill="#FFFFFF" transform="translate(329.9296875,599.765625)"/>
<path d="M0 0 C1.27230469 0.61875 1.27230469 0.61875 2.5703125 1.25 C13.47902301 7.12135489 20.71448779 16.54118327 24.7421875 28.13671875 C27.78114564 39.39751569 27.128954 52.9993477 21.74609375 63.4296875 C20.27955274 65.73938968 18.7074816 67.86274412 17 70 C16.10087891 71.16015625 16.10087891 71.16015625 15.18359375 72.34375 C8.41083152 80.55315876 -0.36171523 86.35490442 -11 88 C-25.45319935 89.16513315 -36.92578934 87.48866689 -49 79 C-51.75 76.5625 -51.75 76.5625 -54 74 C-54.49113281 73.47664062 -54.98226563 72.95328125 -55.48828125 72.4140625 C-63.89619652 63.19247801 -66.8636422 52.36310685 -67 40 C-65.80155833 24.78169309 -59.12648236 13.9899368 -47.796875 4.05078125 C-34.4778485 -5.71526471 -14.70573376 -7.51730799 0 0 Z " fill="#FFFFFF" transform="translate(326,458)"/>
</svg>
